<svg width="300" height="300" viewBox="0 0 300 300" xmlns="http://www.w3.org/2000/svg">

<defs>
  <clipPath id="iconClip">
    <rect x="0" y="0" width="300" height="300" rx="60" ry="60"/>
  </clipPath>
</defs>

<rect x="0" y="0" width="300" height="300" rx="60" ry="60" fill="#1a4d2e"/>

<g clip-path="url(#iconClip)">

  <circle cx="240" cy="60" r="130" fill="#22633b"/>
  <circle cx="30" cy="260" r="90" fill="#16422a"/>

  <rect x="28" y="210" width="38" height="80" rx="6" fill="#4ade80"/>
  <rect x="76" y="175" width="38" height="115" rx="6" fill="#34d399"/>
  <rect x="124" y="135" width="38" height="155" rx="6" fill="#fbbf24"/>
  <rect x="172" y="90" width="38" height="200" rx="6" fill="#f97316"/>
  <rect x="220" y="48" width="38" height="242" rx="6" fill="#fb7185"/>

  <polyline points="47,205 95,168 143,128 191,83 239,40"
    fill="none" stroke="#ffffff" stroke-width="3.5"
    stroke-linecap="round" stroke-linejoin="round"/>

  <circle cx="47" cy="205" r="5" fill="#ffffff"/>
  <circle cx="95" cy="168" r="5" fill="#ffffff"/>
  <circle cx="143" cy="128" r="5" fill="#ffffff"/>
  <circle cx="191" cy="83" r="5" fill="#ffffff"/>
  <circle cx="239" cy="40" r="6" fill="#fbbf24"/>

  <text x="20" y="95" font-family="Georgia, serif" font-size="72" font-weight="700"
    fill="#ffffff" opacity="0.07">$</text>

</g>

</svg>
